<?xml version="1.0" encoding="iso-8859-1"?>
<!-- Generator: Adobe Illustrator 19.0.0, SVG Export Plug-In . SVG Version: 6.00 Build 0)  -->
<svg version="1.1" id="Layer_1" xmlns="http://www.w3.org/2000/svg" xmlns:xlink="http://www.w3.org/1999/xlink" x="0px" y="0px"
	 viewBox="0 0 300 300" style="enable-background:new 0 0 300 300;" xml:space="preserve">
<g id="XMLID_21_">
	<path id="XMLID_4_" d="M0.005,149.995c0,59.367,34.502,110.683,84.543,134.992L12.994,88.953
		C4.674,107.607,0.005,128.25,0.005,149.995z M251.259,142.429c0-18.544-6.661-31.377-12.367-41.366
		c-7.602-12.362-14.729-22.817-14.729-35.18c0-13.788,10.449-26.621,25.184-26.621c0.668,0,1.301,0.081,1.943,0.122
		C224.608,14.932,189.049,0,150,0C97.597,0,51.497,26.89,24.674,67.603c3.525,0.116,6.843,0.188,9.655,0.188
		c15.685,0,39.98-1.907,39.98-1.907c8.083-0.476,9.033,11.406,0.956,12.362c0,0-8.129,0.951-17.163,1.422l54.619,162.478
		l32.827-98.447L122.18,79.667c-8.083-0.471-15.73-1.422-15.73-1.422c-8.083-0.48-7.138-12.838,0.95-12.362
		c0,0,24.766,1.907,39.505,1.907c15.686,0,39.98-1.907,39.98-1.907c8.083-0.476,9.039,11.406,0.956,12.362
		c0,0-8.138,0.951-17.162,1.422l54.203,161.238l14.962-49.984C247.45,171.427,251.259,155.266,251.259,142.429z M152.636,163.116
		L107.628,293.89C121.067,297.841,135.28,300,150,300c17.471,0,34.224-3.015,49.813-8.503c-0.395-0.643-0.769-1.324-1.072-2.068
		L152.636,163.116z M281.624,78.038c0.647,4.774,1.012,9.898,1.012,15.422c0,15.215-2.854,32.326-11.412,53.723l-45.812,132.459
		c44.598-26,74.583-74.311,74.583-129.646C299.995,123.915,293.328,99.398,281.624,78.038z"/>
</g>
<g>
</g>
<g>
</g>
<g>
</g>
<g>
</g>
<g>
</g>
<g>
</g>
<g>
</g>
<g>
</g>
<g>
</g>
<g>
</g>
<g>
</g>
<g>
</g>
<g>
</g>
<g>
</g>
<g>
</g>
</svg>
