<svg version="1" xmlns="http://www.w3.org/2000/svg" width="933.333" height="933.333" viewBox="0 0 700.000000 700.000000"><path d="M164.8 1.1c-62.5 6-118 44.6-145.8 101.4-10.2 20.7-15.8 40.7-18 64-1.4 15.1-1.4 351.9 0 367 4.1 42.6 21.2 79.9 50.8 110.7 30.2 31.3 70.5 50.6 114.7 54.8 15.1 1.4 351.9 1.4 367 0 44.2-4.2 84.5-23.5 114.7-54.8 29.6-30.8 46.7-68.1 50.8-110.7 1.4-15.1 1.4-351.9 0-367-4.1-42.6-21.2-79.9-50.8-110.7C618 24.5 577.7 5.2 533.5 1c-13.4-1.2-355.6-1.2-368.7.1zM221.6 209c47 3.7 72.9 16.1 84.8 40.5 4.9 9.9 6.6 17.2 7.3 31 .7 14.5-1.1 24.4-6.2 35.4-4.7 9.7-15.2 20.4-24.9 25.1-6.4 3.2-6.7 3.5-4.5 4.3 11.6 4.6 19.9 9.7 26.4 16.2 15.6 15.5 22.6 35.9 21.2 61.9-2.5 44.8-29.6 69.4-84 76.1-9.8 1.2-26.3 1.5-84.4 1.5H85V208h61.9c34 0 67.6.5 74.7 1zm325.4 1.3c21.4 3.7 41.2 11.7 53.7 21.7 13.1 10.5 23.8 27.2 28.5 44.5 1.8 6.8 2.2 10.8 2.2 27 .1 16.6-.2 20.1-2.2 27.5-9.8 37-37.3 59.3-82.2 66.6-6.7 1.1-19.7 1.7-44.7 2.1l-35.3.5V501h-76V207.9l73.3.4c61.9.3 74.7.6 82.7 2z"/><path d="M160.2 290.7l.3 30.8 19.5.3c32.3.4 43-1.7 50.8-10.2 5.5-5.9 7.5-12.7 7-23-.7-13.6-5.9-21.1-17.8-25.8-5.1-2.1-7.5-2.3-32.8-2.6l-27.2-.3.2 30.8zM160.5 374.1c-.3.8-.4 18.1-.3 38.4l.3 37 21.5.3c35.3.5 47.3-1.7 57.1-10.6 8.4-7.6 11.4-15.9 10.7-30.4-.7-15-6.5-24.7-18.1-30.2-9-4.2-13.1-4.7-42.4-5.3-23.5-.5-28.4-.3-28.8.8zM467 304v41.2l26.3-.5c27.5-.4 32.9-1.2 41.8-5.7 23.3-12 25.5-52.7 3.6-67.7-9.7-6.6-15-7.5-44.9-8.1l-26.8-.4V304z"/></svg>