<?xml version="1.0" encoding="UTF-8" standalone="no"?>
<svg
   xmlns:dc="http://purl.org/dc/elements/1.1/"
   xmlns:cc="http://creativecommons.org/ns#"
   xmlns:rdf="http://www.w3.org/1999/02/22-rdf-syntax-ns#"
   xmlns:svg="http://www.w3.org/2000/svg"
   xmlns="http://www.w3.org/2000/svg"
   id="SVGRoot"
   version="1.1"
   viewBox="0 0 100 100"
   height="100px"
   width="100px">
  <defs
     id="defs7760" />
  <metadata
     id="metadata7763">
    <rdf:RDF>
      <cc:Work
         rdf:about="">
        <dc:format>image/svg+xml</dc:format>
        <dc:type
           rdf:resource="http://purl.org/dc/dcmitype/StillImage" />
        <dc:title></dc:title>
      </cc:Work>
    </rdf:RDF>
  </metadata>
  <g
     id="layer1">
    <path
       id="path11165"
       d="M 46.84375 18.775391 A 30 30 0 0 0 16.84375 48.775391 A 30 30 0 0 0 46.84375 78.775391 A 30 30 0 0 0 76.84375 48.775391 A 30 30 0 0 0 46.84375 18.775391 z M 59.289062 23.650391 L 60.96875 26.4375 L 61.623047 25.849609 L 61.986328 26.453125 L 59.964844 28.273438 L 59.603516 27.666016 L 60.261719 27.074219 L 58.941406 24.880859 L 58.365234 25.652344 L 58.007812 25.056641 L 58.580078 24.287109 L 59.289062 23.650391 z M 54.914062 24.371094 C 55.271411 24.372494 55.601498 24.418927 55.904297 24.509766 C 56.208841 24.600105 56.45691 24.734077 56.650391 24.912109 C 56.844337 25.091888 56.976707 25.307917 57.044922 25.5625 C 57.139767 25.916477 57.093609 26.219096 56.908203 26.46875 C 56.723262 26.720149 56.409912 26.905227 55.96875 27.023438 C 55.633954 27.113139 55.288729 27.156402 54.933594 27.15625 C 54.580668 27.157383 54.253294 27.113993 53.949219 27.025391 C 53.644207 26.933305 53.394099 26.796546 53.199219 26.613281 C 53.006547 26.431293 52.873754 26.206453 52.802734 25.941406 C 52.711162 25.599637 52.760113 25.304809 52.947266 25.054688 C 53.134418 24.804565 53.44709 24.621181 53.884766 24.503906 C 54.216073 24.415134 54.558926 24.370941 54.914062 24.371094 z M 55.044922 24.902344 C 54.676178 24.900277 54.30996 24.947789 53.947266 25.044922 C 53.659551 25.122021 53.455102 25.230249 53.333984 25.371094 C 53.215085 25.51322 53.183075 25.684028 53.236328 25.882812 C 53.273708 26.02231 53.341839 26.142301 53.443359 26.242188 C 53.54662 26.341608 53.680295 26.419526 53.84375 26.478516 C 54.114695 26.575995 54.434456 26.62464 54.802734 26.625 C 55.17322 26.626667 55.541811 26.580084 55.90625 26.482422 C 56.193964 26.405323 56.396719 26.294464 56.515625 26.152344 C 56.636743 26.011493 56.670452 25.843317 56.617188 25.644531 C 56.581681 25.512003 56.511938 25.394123 56.408203 25.292969 C 56.30669 25.193077 56.175178 25.113674 56.011719 25.054688 C 55.738562 24.955946 55.415877 24.90574 55.044922 24.902344 z M 50.787109 28.775391 L 52.466797 31.5625 L 53.121094 30.974609 L 53.486328 31.578125 L 51.462891 33.398438 L 51.101562 32.791016 L 51.759766 32.199219 L 50.441406 30.005859 L 49.863281 30.777344 L 49.505859 30.181641 L 50.080078 29.414062 L 50.787109 28.775391 z M 61.964844 30.773438 C 62.307754 30.815544 62.634946 30.902561 62.947266 31.037109 C 63.259585 31.171661 63.526256 31.340378 63.75 31.541016 C 63.980213 31.745946 64.145159 31.979905 64.244141 32.242188 C 64.341399 32.504257 64.371223 32.786566 64.333984 33.089844 C 64.282151 33.51202 64.12271 33.821252 63.855469 34.017578 C 63.588443 34.212181 63.230998 34.281785 62.78125 34.226562 C 62.443509 34.185097 62.117214 34.097674 61.804688 33.964844 C 61.490645 33.830081 61.224415 33.663335 61.003906 33.464844 C 60.772392 33.256255 60.607007 33.022277 60.507812 32.761719 C 60.408618 32.50116 60.378355 32.21688 60.416016 31.910156 C 60.467429 31.491426 60.627524 31.184396 60.896484 30.988281 C 61.163934 30.790233 61.520266 30.71885 61.964844 30.773438 z M 61.443359 31.71875 C 61.370594 31.727307 61.310753 31.746431 61.261719 31.775391 C 61.161927 31.833104 61.101757 31.935332 61.083984 32.080078 C 61.067484 32.214485 61.09315 32.336078 61.158203 32.447266 C 61.221543 32.558242 61.326056 32.657683 61.474609 32.744141 C 61.580268 32.809587 61.70211 32.872952 61.839844 32.933594 C 61.977789 32.992514 62.12986 33.047861 62.294922 33.099609 C 62.446411 33.147943 62.58797 33.186947 62.71875 33.21875 C 62.84953 33.25055 62.959453 33.27199 63.050781 33.283203 C 63.242053 33.30669 63.388509 33.289695 63.490234 33.230469 C 63.590238 33.171035 63.650197 33.068577 63.667969 32.923828 C 63.684262 32.791144 63.658584 32.66804 63.591797 32.556641 C 63.525224 32.443518 63.420288 32.343617 63.275391 32.255859 C 63.172755 32.194279 63.054862 32.134683 62.921875 32.078125 C 62.787164 32.021352 62.626723 31.965937 62.441406 31.908203 C 62.291641 31.860076 62.152725 31.818484 62.025391 31.787109 C 61.898057 31.755729 61.788594 31.735823 61.697266 31.724609 C 61.600768 31.712763 61.516125 31.710193 61.443359 31.71875 z M 44.792969 31.804688 L 45.861328 32.28125 L 46.376953 32.642578 L 43.371094 35.542969 L 44.205078 36.128906 L 43.822266 36.501953 L 41.636719 34.972656 L 42.021484 34.599609 L 42.859375 35.185547 L 45.46875 32.664062 L 44.394531 32.183594 L 44.792969 31.804688 z M 55.796875 33.960938 C 56.250057 33.962736 56.668729 34.019591 57.052734 34.134766 C 57.43895 34.249332 57.754631 34.420706 58 34.646484 C 58.245958 34.874476 58.413491 35.149799 58.5 35.472656 C 58.620281 35.921563 58.561301 36.304487 58.326172 36.621094 C 58.091633 36.939913 57.696193 37.174309 57.136719 37.324219 C 56.712137 37.437977 56.274595 37.494334 55.824219 37.494141 C 55.376645 37.495541 54.959841 37.440452 54.574219 37.328125 C 54.187409 37.211343 53.870192 37.037098 53.623047 36.804688 C 53.378706 36.573892 53.21116 36.289252 53.121094 35.953125 C 53.004963 35.519699 53.065391 35.145324 53.302734 34.828125 C 53.540078 34.510924 53.937136 34.277631 54.492188 34.128906 C 54.912345 34.016327 55.346498 33.960743 55.796875 33.960938 z M 55.962891 34.634766 C 55.495257 34.632099 55.032228 34.691224 54.572266 34.814453 C 54.207391 34.91223 53.94852 35.049899 53.794922 35.228516 C 53.644136 35.408756 53.602381 35.624856 53.669922 35.876953 C 53.717322 36.053861 53.804844 36.207312 53.933594 36.333984 C 54.064548 36.460068 54.234116 36.559957 54.441406 36.634766 C 54.785014 36.758387 55.189207 36.819855 55.65625 36.820312 C 56.126095 36.822379 56.592513 36.762479 57.054688 36.638672 C 57.419562 36.540896 57.67733 36.400938 57.828125 36.220703 C 57.981724 36.04208 58.024583 35.826315 57.957031 35.574219 C 57.911998 35.406149 57.824909 35.259141 57.693359 35.130859 C 57.564621 35.004179 57.396749 34.902932 57.189453 34.828125 C 56.843041 34.702904 56.433329 34.639074 55.962891 34.634766 z M 50.152344 38.208984 L 51.558594 38.208984 L 51.558594 44.287109 L 50.152344 44.287109 L 50.152344 38.208984 z M 21.386719 38.470703 L 23.644531 38.470703 C 24.113281 38.470703 24.45573 38.486331 24.671875 38.517578 C 24.890625 38.548825 25.10677 38.617835 25.320312 38.724609 C 25.541666 38.836589 25.705729 38.98763 25.8125 39.177734 C 25.921875 39.365234 25.976562 39.580078 25.976562 39.822266 C 25.976562 40.103516 25.902344 40.352213 25.753906 40.568359 C 25.605468 40.781901 25.395833 40.948567 25.125 41.068359 L 25.125 41.099609 C 25.505209 41.17513 25.80599 41.33138 26.027344 41.568359 C 26.251302 41.805339 26.363281 42.117839 26.363281 42.505859 C 26.363281 42.787109 26.30599 43.038412 26.191406 43.259766 C 26.079427 43.48112 25.924481 43.664714 25.726562 43.810547 C 25.497396 43.982422 25.244792 44.104818 24.96875 44.177734 C 24.695313 44.250651 24.347656 44.287109 23.925781 44.287109 L 21.386719 44.287109 L 21.386719 38.470703 z M 44.371094 38.470703 L 46.839844 38.470703 C 47.209636 38.470703 47.520833 38.503253 47.773438 38.568359 C 48.028644 38.630859 48.253906 38.725912 48.449219 38.853516 C 48.683594 39.007162 48.86198 39.203776 48.984375 39.443359 C 49.109375 39.682943 49.171875 39.970703 49.171875 40.306641 C 49.171875 40.567057 49.126302 40.822266 49.035156 41.072266 C 48.94401 41.319662 48.813802 41.527995 48.644531 41.697266 C 48.41276 41.926432 48.153644 42.09961 47.867188 42.216797 C 47.583333 42.333985 47.229164 42.392578 46.804688 42.392578 L 45.871094 42.392578 L 45.871094 44.287109 L 44.371094 44.287109 L 44.371094 38.470703 z M 32.6875 38.646484 L 34.09375 38.646484 L 34.09375 39.900391 L 35.410156 39.900391 L 35.410156 40.853516 L 34.09375 40.853516 L 34.09375 42.408203 C 34.09375 42.561848 34.095056 42.695964 34.097656 42.810547 C 34.100256 42.92513 34.12109 43.027995 34.160156 43.119141 C 34.196616 43.210287 34.260419 43.283203 34.351562 43.337891 C 34.445312 43.389977 34.580729 43.416016 34.757812 43.416016 C 34.830729 43.416016 34.925781 43.400387 35.042969 43.369141 C 35.162761 43.337894 35.246094 43.30925 35.292969 43.283203 L 35.410156 43.283203 L 35.410156 44.248047 C 35.259114 44.287107 35.098958 44.317057 34.929688 44.337891 C 34.760416 44.361331 34.553386 44.373047 34.308594 44.373047 C 33.761719 44.373047 33.354166 44.26237 33.085938 44.041016 C 32.820312 43.819662 32.6875 43.440756 32.6875 42.904297 L 32.6875 40.853516 L 32.109375 40.853516 L 32.109375 39.900391 L 32.6875 39.900391 L 32.6875 38.646484 z M 69.328125 38.646484 L 70.734375 38.646484 L 70.734375 39.900391 L 72.050781 39.900391 L 72.050781 40.853516 L 70.734375 40.853516 L 70.734375 42.408203 C 70.734375 42.561848 70.735681 42.695964 70.738281 42.810547 C 70.740881 42.92513 70.761715 43.027995 70.800781 43.119141 C 70.837241 43.210287 70.901044 43.283203 70.992188 43.337891 C 71.085938 43.389977 71.221354 43.416016 71.398438 43.416016 C 71.471354 43.416016 71.566406 43.400387 71.683594 43.369141 C 71.803386 43.337894 71.886719 43.30925 71.933594 43.283203 L 72.050781 43.283203 L 72.050781 44.248047 C 71.899739 44.287107 71.739583 44.317057 71.570312 44.337891 C 71.401044 44.361331 71.194011 44.373047 70.949219 44.373047 C 70.402344 44.373047 69.994794 44.26237 69.726562 44.041016 C 69.460938 43.819662 69.328125 43.440756 69.328125 42.904297 L 69.328125 40.853516 L 68.75 40.853516 L 68.75 39.900391 L 69.328125 39.900391 L 69.328125 38.646484 z M 22.878906 39.537109 L 22.878906 40.767578 L 23.113281 40.767578 C 23.35026 40.767578 23.552083 40.763673 23.71875 40.755859 C 23.885417 40.748046 24.016927 40.722008 24.113281 40.677734 C 24.248698 40.617841 24.33724 40.541018 24.378906 40.447266 C 24.420573 40.350912 24.441406 40.240234 24.441406 40.115234 C 24.441406 40.01888 24.416667 39.922527 24.367188 39.826172 C 24.320314 39.729818 24.235679 39.658203 24.113281 39.611328 C 24.003906 39.569661 23.867188 39.547529 23.703125 39.544922 C 23.541667 39.539722 23.313802 39.537109 23.019531 39.537109 L 22.878906 39.537109 z M 45.871094 39.556641 L 45.871094 41.298828 L 46.300781 41.298828 C 46.555989 41.298828 46.765625 41.2832 46.929688 41.251953 C 47.096353 41.220706 47.235677 41.158206 47.347656 41.064453 C 47.44401 40.98112 47.513021 40.882161 47.554688 40.767578 C 47.598961 40.65039 47.621094 40.508464 47.621094 40.341797 C 47.621094 40.177735 47.576823 40.03711 47.488281 39.919922 C 47.399739 39.800131 47.296875 39.716797 47.179688 39.669922 C 47.023438 39.607422 46.871094 39.573567 46.722656 39.568359 C 46.574218 39.560546 46.376302 39.556641 46.128906 39.556641 L 45.871094 39.556641 z M 38.417969 39.763672 C 39.131511 39.763672 39.667969 39.944661 40.027344 40.306641 C 40.386719 40.666016 40.566406 41.184245 40.566406 41.861328 L 40.566406 42.353516 L 37.347656 42.353516 C 37.36849 42.697266 37.498698 42.960286 37.738281 43.142578 C 37.980469 43.324869 38.335938 43.416016 38.804688 43.416016 C 39.101562 43.416016 39.389323 43.36263 39.667969 43.255859 C 39.946615 43.149089 40.166667 43.034505 40.328125 42.912109 L 40.484375 42.912109 L 40.484375 44.041016 C 40.166667 44.16862 39.867188 44.261067 39.585938 44.318359 C 39.304688 44.375653 38.99349 44.404297 38.652344 44.404297 C 37.772136 44.404297 37.097656 44.20638 36.628906 43.810547 C 36.160156 43.414714 35.925781 42.850911 35.925781 42.119141 C 35.925781 41.395183 36.147136 40.822266 36.589844 40.400391 C 37.035156 39.975911 37.644531 39.763672 38.417969 39.763672 z M 66.105469 39.763672 C 66.819011 39.763672 67.355469 39.944661 67.714844 40.306641 C 68.074219 40.666016 68.253906 41.184245 68.253906 41.861328 L 68.253906 42.353516 L 65.035156 42.353516 C 65.05599 42.697266 65.186198 42.960286 65.425781 43.142578 C 65.667969 43.324869 66.023438 43.416016 66.492188 43.416016 C 66.789062 43.416016 67.076823 43.36263 67.355469 43.255859 C 67.634115 43.149089 67.854167 43.034505 68.015625 42.912109 L 68.171875 42.912109 L 68.171875 44.041016 C 67.854167 44.16862 67.554688 44.261067 67.273438 44.318359 C 66.992188 44.375653 66.68099 44.404297 66.339844 44.404297 C 65.459636 44.404297 64.785156 44.20638 64.316406 43.810547 C 63.847656 43.414714 63.613281 42.850911 63.613281 42.119141 C 63.613281 41.395183 63.834636 40.822266 64.277344 40.400391 C 64.722656 39.975911 65.332031 39.763672 66.105469 39.763672 z M 54.671875 39.775391 C 55.471354 39.775391 56.048177 39.899088 56.402344 40.146484 C 56.759114 40.391276 56.9375 40.776692 56.9375 41.302734 L 56.9375 44.287109 L 55.542969 44.287109 L 55.542969 43.822266 C 55.467448 43.879559 55.373698 43.94857 55.261719 44.029297 C 55.149739 44.110026 55.04427 44.173828 54.945312 44.220703 C 54.807292 44.283203 54.664063 44.328777 54.515625 44.357422 C 54.367188 44.388669 54.204427 44.404297 54.027344 44.404297 C 53.610677 44.404297 53.261719 44.27539 52.980469 44.017578 C 52.699219 43.759765 52.558594 43.430339 52.558594 43.029297 C 52.558594 42.708985 52.630208 42.447266 52.773438 42.244141 C 52.916666 42.041016 53.119795 41.88086 53.382812 41.763672 C 53.643229 41.646485 53.966149 41.563151 54.351562 41.513672 C 54.736979 41.464192 55.136719 41.427734 55.550781 41.404297 L 55.550781 41.380859 C 55.550781 41.138672 55.451823 40.972005 55.253906 40.880859 C 55.05599 40.787109 54.764323 40.740234 54.378906 40.740234 C 54.147135 40.740234 53.899739 40.781901 53.636719 40.865234 C 53.373698 40.945964 53.184899 41.008464 53.070312 41.052734 L 52.941406 41.052734 L 52.941406 39.994141 C 53.089844 39.955081 53.330729 39.909508 53.664062 39.857422 C 54 39.802735 54.335938 39.775391 54.671875 39.775391 z M 61.125 39.779297 C 61.598959 39.779297 61.96875 39.917317 62.234375 40.193359 C 62.502604 40.469401 62.636719 40.882161 62.636719 41.431641 L 62.636719 44.287109 L 61.222656 44.287109 L 61.222656 42.111328 C 61.222656 41.934245 61.213539 41.758464 61.195312 41.583984 C 61.177087 41.406901 61.145837 41.276693 61.101562 41.193359 C 61.049478 41.097005 60.972653 41.026693 60.871094 40.982422 C 60.772136 40.938149 60.632813 40.916016 60.453125 40.916016 C 60.325521 40.916016 60.195313 40.936849 60.0625 40.978516 C 59.932292 41.020182 59.790365 41.086588 59.636719 41.177734 L 59.636719 44.287109 L 58.230469 44.287109 L 58.230469 39.900391 L 59.636719 39.900391 L 59.636719 40.384766 C 59.886719 40.189453 60.126302 40.039714 60.355469 39.935547 C 60.587239 39.83138 60.84375 39.779297 61.125 39.779297 z M 26.855469 39.900391 L 28.332031 39.900391 L 29.382812 42.736328 L 30.382812 39.900391 L 31.828125 39.900391 L 29.390625 45.896484 L 27.867188 45.896484 L 28.5625 44.255859 L 26.855469 39.900391 z M 38.304688 40.642578 C 38.033853 40.642578 37.811198 40.712891 37.636719 40.853516 C 37.462239 40.994141 37.364583 41.219402 37.34375 41.529297 L 39.167969 41.529297 C 39.160155 41.235026 39.087239 41.013672 38.949219 40.865234 C 38.811198 40.716797 38.596353 40.642578 38.304688 40.642578 z M 65.992188 40.642578 C 65.721354 40.642578 65.498698 40.712891 65.324219 40.853516 C 65.149739 40.994141 65.052083 41.219402 65.03125 41.529297 L 66.855469 41.529297 C 66.847655 41.235026 66.774739 41.013672 66.636719 40.865234 C 66.498698 40.716797 66.283854 40.642578 65.992188 40.642578 z M 22.878906 41.771484 L 22.878906 43.220703 L 22.988281 43.220703 C 23.410156 43.220703 23.712239 43.219397 23.894531 43.216797 C 24.076823 43.214197 24.24479 43.180342 24.398438 43.115234 C 24.554687 43.050128 24.661459 42.964191 24.71875 42.857422 C 24.778643 42.748047 24.808594 42.623047 24.808594 42.482422 C 24.808594 42.297527 24.772135 42.155599 24.699219 42.056641 C 24.628906 41.955078 24.507812 41.879557 24.335938 41.830078 C 24.218749 41.796225 24.057292 41.777997 23.851562 41.775391 C 23.645834 41.772791 23.430989 41.771484 23.207031 41.771484 L 22.878906 41.771484 z M 55.542969 42.228516 C 55.352865 42.244142 55.147135 42.266275 54.925781 42.294922 C 54.704427 42.320962 54.536458 42.352212 54.421875 42.388672 C 54.28125 42.432945 54.173177 42.498049 54.097656 42.583984 C 54.02474 42.667318 53.988281 42.777995 53.988281 42.916016 C 53.988281 43.007162 53.996092 43.081381 54.011719 43.138672 C 54.027345 43.195965 54.066408 43.250652 54.128906 43.302734 C 54.1888 43.354821 54.260415 43.393884 54.34375 43.419922 C 54.427083 43.443362 54.557292 43.455078 54.734375 43.455078 C 54.875 43.455078 55.016927 43.426434 55.160156 43.369141 C 55.30599 43.311847 55.433594 43.236326 55.542969 43.142578 L 55.542969 42.228516 z M 35.105469 48.429688 L 36.511719 48.429688 L 36.511719 50.578125 C 36.727865 50.40625 36.947917 50.266927 37.171875 50.160156 C 37.398438 50.053386 37.658854 50 37.953125 50 C 38.507813 50 38.934896 50.200522 39.234375 50.601562 C 39.533854 51.000001 39.683594 51.550782 39.683594 52.253906 C 39.683594 52.94401 39.492188 53.50651 39.109375 53.941406 C 38.729167 54.376302 38.253906 54.59375 37.683594 54.59375 C 37.438802 54.59375 37.223959 54.567712 37.039062 54.515625 C 36.854166 54.463538 36.678385 54.388019 36.511719 54.289062 L 36.453125 54.507812 L 35.105469 54.507812 L 35.105469 48.429688 z M 40.699219 48.429688 L 42.105469 48.429688 L 42.105469 54.507812 L 40.699219 54.507812 L 40.699219 48.429688 z M 43.394531 48.429688 L 44.878906 48.429688 L 44.878906 49.496094 L 43.394531 49.496094 L 43.394531 48.429688 z M 50.917969 48.429688 L 52.324219 48.429688 L 52.324219 50.605469 C 52.574219 50.410156 52.813802 50.260417 53.042969 50.15625 C 53.274739 50.052083 53.53125 50 53.8125 50 C 54.286459 50 54.65625 50.138022 54.921875 50.414062 C 55.190104 50.690104 55.324219 51.102864 55.324219 51.652344 L 55.324219 54.507812 L 53.910156 54.507812 L 53.910156 52.332031 C 53.910156 52.154948 53.901039 51.979166 53.882812 51.804688 C 53.864587 51.627603 53.833337 51.497399 53.789062 51.414062 C 53.736978 51.317709 53.660153 51.247396 53.558594 51.203125 C 53.459636 51.158852 53.320313 51.136719 53.140625 51.136719 C 53.013021 51.136719 52.882813 51.157552 52.75 51.199219 C 52.619792 51.240885 52.477865 51.307291 52.324219 51.398438 L 52.324219 54.507812 L 50.917969 54.507812 L 50.917969 48.429688 z M 56.582031 48.429688 L 58.066406 48.429688 L 58.066406 49.496094 L 56.582031 49.496094 L 56.582031 48.429688 z M 23.621094 48.691406 L 26.089844 48.691406 C 26.459636 48.691406 26.770832 48.723956 27.023438 48.789062 C 27.278645 48.851562 27.503906 48.946614 27.699219 49.074219 C 27.933594 49.227864 28.11198 49.424479 28.234375 49.664062 C 28.359375 49.903647 28.421875 50.191406 28.421875 50.527344 C 28.421875 50.78776 28.376302 51.042969 28.285156 51.292969 C 28.19401 51.540364 28.063802 51.748697 27.894531 51.917969 C 27.66276 52.147135 27.403645 52.320313 27.117188 52.4375 C 26.833331 52.554687 26.479167 52.613281 26.054688 52.613281 L 25.121094 52.613281 L 25.121094 54.507812 L 23.621094 54.507812 L 23.621094 48.691406 z M 25.121094 49.777344 L 25.121094 51.519531 L 25.550781 51.519531 C 25.805989 51.519531 26.015625 51.503903 26.179688 51.472656 C 26.346354 51.44141 26.485677 51.37891 26.597656 51.285156 C 26.69401 51.201823 26.76302 51.102865 26.804688 50.988281 C 26.848961 50.871094 26.871094 50.729167 26.871094 50.5625 C 26.871094 50.398437 26.826823 50.257812 26.738281 50.140625 C 26.649739 50.020833 26.546875 49.9375 26.429688 49.890625 C 26.273437 49.828125 26.121094 49.794272 25.972656 49.789062 C 25.824218 49.78125 25.626302 49.777344 25.378906 49.777344 L 25.121094 49.777344 z M 48.132812 50 C 48.460938 50 48.774739 50.033854 49.074219 50.101562 C 49.376302 50.166671 49.611979 50.236981 49.78125 50.3125 L 49.78125 51.421875 L 49.660156 51.421875 C 49.451823 51.278646 49.213545 51.16276 48.945312 51.074219 C 48.679688 50.983073 48.410156 50.9375 48.136719 50.9375 C 47.910156 50.9375 47.71875 50.96875 47.5625 51.03125 C 47.408855 51.09375 47.332031 51.182292 47.332031 51.296875 C 47.332031 51.401042 47.367188 51.480469 47.4375 51.535156 C 47.507813 51.589843 47.673177 51.64453 47.933594 51.699219 C 48.076823 51.727865 48.230469 51.75651 48.394531 51.785156 C 48.561198 51.811196 48.727865 51.84505 48.894531 51.886719 C 49.264323 51.983073 49.53776 52.135417 49.714844 52.34375 C 49.891927 52.549479 49.980469 52.807291 49.980469 53.117188 C 49.980469 53.570312 49.777344 53.936198 49.371094 54.214844 C 48.964844 54.490885 48.408854 54.628906 47.703125 54.628906 C 47.3125 54.628906 46.958334 54.592448 46.640625 54.519531 C 46.322917 54.446615 46.067709 54.365885 45.875 54.277344 L 45.875 53.121094 L 46.003906 53.121094 C 46.074218 53.170574 46.154948 53.225262 46.246094 53.285156 C 46.339844 53.34245 46.471354 53.40495 46.640625 53.472656 C 46.786458 53.53255 46.951823 53.584633 47.136719 53.628906 C 47.321615 53.670573 47.519531 53.691406 47.730469 53.691406 C 48.006511 53.691406 48.210938 53.661456 48.34375 53.601562 C 48.476563 53.539063 48.542969 53.447916 48.542969 53.328125 C 48.542969 53.221354 48.503906 53.144532 48.425781 53.097656 C 48.347656 53.048176 48.199219 53.001301 47.980469 52.957031 C 47.876302 52.933591 47.734373 52.908853 47.554688 52.882812 C 47.377603 52.854166 47.216149 52.820311 47.070312 52.78125 C 46.671875 52.677083 46.376302 52.515625 46.183594 52.296875 C 45.990886 52.075521 45.894531 51.800782 45.894531 51.472656 C 45.894531 51.050782 46.09375 50.700521 46.492188 50.421875 C 46.893228 50.140625 47.440108 50 48.132812 50 z M 62.25 50 C 62.723959 50 63.09375 50.138022 63.359375 50.414062 C 63.627604 50.690104 63.761719 51.102864 63.761719 51.652344 L 63.761719 54.507812 L 62.347656 54.507812 L 62.347656 52.332031 C 62.347656 52.154948 62.338539 51.979166 62.320312 51.804688 C 62.302087 51.627603 62.270837 51.497399 62.226562 51.414062 C 62.174478 51.317709 62.097653 51.247396 61.996094 51.203125 C 61.897136 51.158852 61.757813 51.136719 61.578125 51.136719 C 61.450521 51.136719 61.320313 51.157552 61.1875 51.199219 C 61.057292 51.240885 60.915365 51.307291 60.761719 51.398438 L 60.761719 54.507812 L 59.355469 54.507812 L 59.355469 50.121094 L 60.761719 50.121094 L 60.761719 50.605469 C 61.011719 50.410156 61.251302 50.260417 61.480469 50.15625 C 61.712239 50.052083 61.96875 50 62.25 50 z M 66.734375 50 C 66.971354 50 67.186198 50.028641 67.378906 50.085938 C 67.574218 50.140624 67.751302 50.217447 67.910156 50.316406 L 67.960938 50.121094 L 69.324219 50.121094 L 69.324219 54.003906 C 69.324219 54.415365 69.265625 54.761719 69.148438 55.042969 C 69.03125 55.324219 68.867188 55.544271 68.65625 55.703125 C 68.445313 55.864583 68.190104 55.980469 67.890625 56.050781 C 67.59375 56.123698 67.257812 56.160156 66.882812 56.160156 C 66.578125 56.160156 66.277344 56.141929 65.980469 56.105469 C 65.686198 56.069009 65.43099 56.024738 65.214844 55.972656 L 65.214844 54.875 L 65.386719 54.875 C 65.558594 54.942708 65.76823 55.003906 66.015625 55.058594 C 66.263021 55.115887 66.484375 55.144531 66.679688 55.144531 C 66.940104 55.144531 67.151042 55.119792 67.3125 55.070312 C 67.476563 55.02344 67.601563 54.955731 67.6875 54.867188 C 67.768229 54.783853 67.826823 54.677083 67.863281 54.546875 C 67.899741 54.416666 67.917969 54.260416 67.917969 54.078125 L 67.917969 53.996094 C 67.748698 54.134114 67.561198 54.243489 67.355469 54.324219 C 67.149739 54.404947 66.920573 54.445314 66.667969 54.445312 C 66.053385 54.445313 65.579427 54.260416 65.246094 53.890625 C 64.91276 53.520833 64.746094 52.958333 64.746094 52.203125 C 64.746094 51.841146 64.796875 51.528646 64.898438 51.265625 C 65 51.002604 65.14323 50.773438 65.328125 50.578125 C 65.5 50.395833 65.710938 50.253906 65.960938 50.152344 C 66.213542 50.050781 66.471354 50 66.734375 50 z M 29.367188 50.121094 L 30.78125 50.121094 L 30.78125 52.296875 C 30.78125 52.518229 30.787761 52.703127 30.800781 52.851562 C 30.816408 52.997397 30.850262 53.118489 30.902344 53.214844 C 30.951824 53.311198 31.026043 53.381511 31.125 53.425781 C 31.226563 53.470055 31.367188 53.492188 31.546875 53.492188 C 31.666667 53.492188 31.79948 53.470055 31.945312 53.425781 C 32.091147 53.381508 32.231771 53.316403 32.367188 53.230469 L 32.367188 50.121094 L 33.773438 50.121094 L 33.773438 54.507812 L 32.367188 54.507812 L 32.367188 54.023438 C 32.106771 54.221353 31.86849 54.372399 31.652344 54.476562 C 31.436198 54.578125 31.178385 54.628906 30.878906 54.628906 C 30.394531 54.628906 30.020833 54.489584 29.757812 54.210938 C 29.497396 53.932291 29.367187 53.520836 29.367188 52.976562 L 29.367188 50.121094 z M 43.433594 50.121094 L 44.839844 50.121094 L 44.839844 54.507812 L 43.433594 54.507812 L 43.433594 50.121094 z M 56.621094 50.121094 L 58.027344 50.121094 L 58.027344 54.507812 L 56.621094 54.507812 L 56.621094 50.121094 z M 67.304688 51.027344 C 66.934894 51.027344 66.657552 51.134115 66.472656 51.347656 C 66.28776 51.558594 66.195312 51.854166 66.195312 52.234375 C 66.195312 52.65625 66.273438 52.950521 66.429688 53.117188 C 66.588542 53.283853 66.822919 53.367187 67.132812 53.367188 C 67.273438 53.367187 67.411458 53.345055 67.546875 53.300781 C 67.682292 53.256508 67.805989 53.197914 67.917969 53.125 L 67.917969 51.136719 C 67.837239 51.102865 67.738281 51.076827 67.621094 51.058594 C 67.503906 51.03776 67.398438 51.027344 67.304688 51.027344 z M 37.324219 51.0625 C 37.191406 51.0625 37.054688 51.083333 36.914062 51.125 C 36.773438 51.16406 36.639323 51.221352 36.511719 51.296875 L 36.511719 53.5 C 36.613281 53.53646 36.709635 53.561199 36.800781 53.574219 C 36.891927 53.587239 37.001302 53.59375 37.128906 53.59375 C 37.501302 53.59375 37.778644 53.484375 37.960938 53.265625 C 38.143228 53.046875 38.234375 52.71875 38.234375 52.28125 C 38.234375 51.890625 38.167968 51.589844 38.035156 51.378906 C 37.902344 51.167969 37.665365 51.0625 37.324219 51.0625 z M 29.771484 56.535156 L 32.117188 56.535156 L 32.027344 56.998047 L 31.128906 56.998047 L 30.521484 60.128906 L 31.537109 59.933594 L 31.441406 60.408203 L 30.431641 60.603516 L 29.876953 60.603516 L 30.580078 56.998047 L 29.683594 56.998047 L 29.771484 56.535156 z M 36.605469 57.382812 L 37.544922 57.578125 L 38.421875 57.949219 L 36.605469 60.650391 L 37.416016 60.994141 L 37.021484 61.580078 L 34.517578 60.515625 L 34.914062 59.933594 L 35.730469 60.279297 L 37.160156 58.15625 L 36.216797 57.958984 L 36.605469 57.382812 z M 42.244141 57.662109 C 42.587051 57.704216 42.914243 57.793186 43.226562 57.927734 C 43.538882 58.062286 43.807506 58.22905 44.03125 58.429688 C 44.261463 58.634618 44.426409 58.868577 44.525391 59.130859 C 44.622649 59.392929 44.652473 59.675238 44.615234 59.978516 C 44.563401 60.400692 44.40396 60.709924 44.136719 60.90625 C 43.869693 61.100853 43.510295 61.170456 43.060547 61.115234 C 42.722806 61.073768 42.398468 60.986346 42.085938 60.853516 C 41.771895 60.718753 41.503712 60.55396 41.283203 60.355469 C 41.051689 60.14688 40.886303 59.910949 40.787109 59.650391 C 40.687915 59.389832 40.657652 59.107505 40.695312 58.800781 C 40.746727 58.382051 40.906821 58.073068 41.175781 57.876953 C 41.443231 57.678904 41.799563 57.607522 42.244141 57.662109 z M 23.714844 57.898438 C 24.057754 57.940544 24.384946 58.027561 24.697266 58.162109 C 25.009585 58.296661 25.276256 58.465378 25.5 58.666016 C 25.730213 58.870946 25.895159 59.104896 25.994141 59.367188 C 26.091399 59.629257 26.121223 59.911566 26.083984 60.214844 C 26.032151 60.63702 25.87271 60.946252 25.605469 61.142578 C 25.338443 61.337181 24.980998 61.406785 24.53125 61.351562 C 24.193509 61.310097 23.867218 61.222674 23.554688 61.089844 C 23.240645 60.955081 22.974415 60.788335 22.753906 60.589844 C 22.522392 60.381255 22.357006 60.147277 22.257812 59.886719 C 22.15862 59.62616 22.128355 59.34188 22.166016 59.035156 C 22.217429 58.616426 22.377524 58.309396 22.646484 58.113281 C 22.913934 57.915233 23.270266 57.84385 23.714844 57.898438 z M 41.724609 58.609375 C 41.651844 58.617932 41.59005 58.635105 41.541016 58.664062 C 41.441224 58.721776 41.383007 58.824004 41.365234 58.96875 C 41.348734 59.103157 41.372447 59.226703 41.4375 59.337891 C 41.50084 59.448867 41.607306 59.546355 41.755859 59.632812 C 41.861518 59.698259 41.98336 59.761624 42.121094 59.822266 C 42.259039 59.881186 42.409157 59.936533 42.574219 59.988281 C 42.725707 60.036615 42.867267 60.077572 42.998047 60.109375 C 43.128827 60.141175 43.240703 60.162615 43.332031 60.173828 C 43.523303 60.197315 43.669759 60.178367 43.771484 60.119141 C 43.871488 60.059707 43.929494 59.957249 43.947266 59.8125 C 43.963559 59.679816 43.93788 59.558665 43.871094 59.447266 C 43.80452 59.334143 43.699585 59.234242 43.554688 59.146484 C 43.452052 59.084904 43.334159 59.025308 43.201172 58.96875 C 43.066461 58.911977 42.90602 58.854609 42.720703 58.796875 C 42.570938 58.748748 42.432017 58.709109 42.304688 58.677734 C 42.177354 58.646354 42.067892 58.624495 41.976562 58.613281 C 41.880066 58.601435 41.797375 58.600818 41.724609 58.609375 z M 23.193359 58.84375 C 23.120594 58.852307 23.060753 58.871431 23.011719 58.900391 C 22.911927 58.958104 22.851757 59.060332 22.833984 59.205078 C 22.817484 59.339485 22.84315 59.461078 22.908203 59.572266 C 22.971543 59.683242 23.076056 59.782683 23.224609 59.869141 C 23.330268 59.934587 23.45211 59.997952 23.589844 60.058594 C 23.727789 60.117514 23.87986 60.172861 24.044922 60.224609 C 24.196411 60.272943 24.33797 60.311947 24.46875 60.34375 C 24.59953 60.37555 24.709453 60.39699 24.800781 60.408203 C 24.992053 60.43169 25.138509 60.414695 25.240234 60.355469 C 25.340238 60.296035 25.400197 60.193577 25.417969 60.048828 C 25.434262 59.916144 25.408584 59.79304 25.341797 59.681641 C 25.275224 59.568518 25.170288 59.468617 25.025391 59.380859 C 24.922755 59.319279 24.804862 59.259683 24.671875 59.203125 C 24.537164 59.146352 24.376723 59.090937 24.191406 59.033203 C 24.041641 58.985076 23.902725 58.943484 23.775391 58.912109 C 23.648057 58.880729 23.538594 58.860823 23.447266 58.849609 C 23.350768 58.837763 23.266125 58.835193 23.193359 58.84375 z M 29.162109 64.121094 C 29.581295 64.122694 29.967067 64.176602 30.322266 64.283203 C 30.67951 64.389175 30.972257 64.547018 31.199219 64.755859 C 31.426727 64.966749 31.580137 65.220893 31.660156 65.519531 C 31.771414 65.934763 31.719443 66.289175 31.501953 66.582031 C 31.285008 66.876934 30.917895 67.093757 30.400391 67.232422 C 30.007659 67.337646 29.602138 67.388851 29.185547 67.388672 C 28.771548 67.390005 28.385992 67.340267 28.029297 67.236328 C 27.671504 67.128306 27.378995 66.964977 27.150391 66.75 C 26.924378 66.536519 26.768856 66.275756 26.685547 65.964844 C 26.578127 65.563932 26.633976 65.21528 26.853516 64.921875 C 27.073055 64.628469 27.43971 64.414912 27.953125 64.277344 C 28.341764 64.173209 28.745518 64.120915 29.162109 64.121094 z M 29.314453 64.744141 C 28.881899 64.741674 28.452802 64.796172 28.027344 64.910156 C 27.689841 65.000597 27.450671 65.129704 27.308594 65.294922 C 27.169119 65.461643 27.130891 65.661347 27.193359 65.894531 C 27.237206 66.058169 27.318411 66.197283 27.4375 66.314453 C 27.55863 66.431078 27.71451 66.524553 27.90625 66.59375 C 28.224083 66.708098 28.599243 66.765202 29.03125 66.765625 C 29.465849 66.767558 29.896715 66.712198 30.324219 66.597656 C 30.661721 66.507216 30.901532 66.377651 31.041016 66.210938 C 31.183092 66.045713 31.22264 65.846466 31.160156 65.613281 C 31.118503 65.457819 31.035745 65.321784 30.914062 65.203125 C 30.794982 65.085948 30.640964 64.993023 30.449219 64.923828 C 30.128793 64.808001 29.749602 64.748125 29.314453 64.744141 z M 35.863281 64.900391 L 38.132812 68.667969 L 39.017578 67.873047 L 39.509766 68.6875 L 36.777344 71.148438 L 36.289062 70.328125 L 37.177734 69.527344 L 35.394531 66.5625 L 34.615234 67.607422 L 34.130859 66.800781 L 34.90625 65.763672 L 35.863281 64.900391 z "
       style="opacity:1;fill:#dddddd;fill-opacity:1;stroke:#dddddd;stroke-width:0.091;stroke-linecap:round;stroke-miterlimit:4;stroke-dasharray:none;stroke-dashoffset:0;stroke-opacity:1" />
    <flowRoot
       style="fill:black;fill-opacity:1;stroke:none;font-family:sans-serif;font-style:normal;font-weight:normal;font-size:5.33333333px;line-height:1.25;letter-spacing:0px;word-spacing:0px"
       id="flowRoot11379"
       xml:space="preserve"><flowRegion
         id="flowRegion11381"><rect
           y="15.375"
           x="1"
           height="61.25"
           width="85.375"
           id="rect11383" /></flowRegion><flowPara
         id="flowPara11385"></flowPara></flowRoot>    <g
       id="text11576"
       style="font-style:italic;font-variant:normal;font-weight:bold;font-stretch:normal;font-size:5.33333349px;line-height:1.25;font-family:sans-serif;-inkscape-font-specification:'sans-serif Bold Italic';letter-spacing:0px;word-spacing:0px;fill:#dddddd;fill-opacity:1;stroke:none"
       aria-label="1
   0  1">
      <path
         style="fill:#dddddd;fill-opacity:1"
         id="path11588"
         d="m 11.227478,67.791836 0.657993,-0.59246 -1.319643,-2.193391 -0.5770426,0.771877 -0.3578433,-0.59591 0.5731719,-0.768392 0.70831,-0.637765 1.679421,2.787559 0.654123,-0.588975 0.364813,0.603652 -2.02236,1.820941 z" />
      <path
         style="fill:#dddddd;fill-opacity:1"
         id="path11590"
         d="m 16.572597,73.563164 q 0.02444,-0.199026 -0.07574,-0.366125 -0.09986,-0.169684 -0.317206,-0.30132 -0.153953,-0.09237 -0.353434,-0.177207 -0.202066,-0.08516 -0.480041,-0.171761 -0.224648,-0.07219 -0.415649,-0.119252 -0.191,-0.04707 -0.327992,-0.06389 -0.289493,-0.03554 -0.436595,0.05134 -0.149687,0.08657 -0.176346,0.303689 -0.02475,0.201611 0.07283,0.368393 0.09501,0.166465 0.31784,0.296151 0.158488,0.09817 0.365089,0.189132 0.206918,0.08838 0.454511,0.166003 0.227233,0.0725 0.423403,0.120204 0.19617,0.0477 0.333162,0.06452 0.286908,0.03523 0.439496,-0.05361 0.150005,-0.08915 0.176663,-0.306274 z M 14.868883,71.41242 q 0.514366,0.06316 0.982845,0.264982 0.468479,0.201827 0.804095,0.502784 0.34532,0.307396 0.493793,0.700819 0.145888,0.393105 0.09003,0.848022 -0.07775,0.633265 -0.478612,0.927754 -0.400538,0.291904 -1.07516,0.209071 -0.506612,-0.0622 -0.975408,-0.261446 -0.471064,-0.202144 -0.801827,-0.499881 -0.347271,-0.312883 -0.496061,-0.703721 -0.148791,-0.390838 -0.0923,-0.850924 0.07712,-0.628096 0.480561,-0.922268 0.401174,-0.297073 1.068041,-0.215192 z" />
      <path
         style="fill:#dddddd;fill-opacity:1"
         id="path11592"
         d="m 25.005944,74.724812 0.815031,0.34596 1.430182,-2.12297 -0.943427,-0.196769 0.388847,-0.576159 0.938633,0.194734 0.877356,0.372415 -1.816632,2.700147 0.810236,0.343925 -0.392918,0.585747 -2.505019,-1.063318 z" />
      <path
         style="stroke-width:1.45884466;fill:#dddddd;fill-opacity:1"
         d="m 42.086761,67.172495 0.95991,-0.864307 -1.925154,-3.199817 -0.841817,1.126049 -0.522037,-0.86934 0.836169,-1.120965 1.033314,-0.9304 2.450015,4.066616 0.954264,-0.859223 0.532205,0.880634 -2.950309,2.65647 z"
         id="path11662" />
      <path
         d="m 64.822597,20.438164 q 0.02444,-0.199026 -0.07574,-0.366125 -0.09986,-0.169684 -0.317206,-0.30132 -0.153953,-0.09237 -0.353434,-0.177207 -0.202066,-0.08516 -0.480041,-0.171761 -0.224648,-0.07219 -0.415649,-0.119252 -0.191,-0.04707 -0.327992,-0.06389 -0.289493,-0.03554 -0.436595,0.05134 -0.149687,0.08657 -0.176346,0.303689 -0.02475,0.201611 0.07283,0.368393 0.09501,0.166465 0.31784,0.296151 0.158488,0.09817 0.365089,0.189132 0.206918,0.08838 0.454511,0.166003 0.227233,0.0725 0.423403,0.120204 0.19617,0.0477 0.333162,0.06452 0.286908,0.03523 0.439496,-0.05361 0.150005,-0.08915 0.176663,-0.306274 z M 63.118883,18.28742 q 0.514366,0.06316 0.982845,0.264982 0.468479,0.201827 0.804095,0.502784 0.34532,0.307396 0.493793,0.700819 0.145888,0.393105 0.09003,0.848022 -0.07775,0.633265 -0.478612,0.927754 -0.400538,0.291904 -1.07516,0.209071 -0.506612,-0.0622 -0.975408,-0.261446 -0.471064,-0.202144 -0.801827,-0.499881 -0.347271,-0.312883 -0.496061,-0.703721 -0.148791,-0.390838 -0.0923,-0.850924 0.07712,-0.628096 0.480561,-0.922268 0.401174,-0.297073 1.068041,-0.215192 z"
         id="path11715"
         style="fill:#dddddd;fill-opacity:1" />
    </g>
    <g
       id="text11582"
       style="font-style:italic;font-variant:normal;font-weight:normal;font-stretch:normal;font-size:8px;line-height:1.25;font-family:sans-serif;-inkscape-font-specification:'sans-serif Italic';letter-spacing:0px;word-spacing:0px;fill:#dddddd;fill-opacity:1;stroke:none"
       aria-label="011">
      <path
         id="path11595"
         style="font-size:2.66666675px;letter-spacing:5px;fill:#dddddd;fill-opacity:1"
         d="m 10.881517,69.756337 q 0.06841,0.255317 -0.06532,0.435388 -0.133395,0.181329 -0.451597,0.266591 -0.241482,0.0647 -0.497635,0.06459 -0.2545585,8.08e-4 -0.4738833,-0.06309 Q 9.173083,70.393397 9.0325186,70.261211 8.893549,70.129946 8.8423244,69.938773 q -0.066053,-0.246512 0.068937,-0.42692 0.13499,-0.180409 0.4506767,-0.264997 0.238966,-0.06403 0.4951193,-0.06392 0.2577475,0.001 0.4761515,0.06653 0.219662,0.06516 0.359216,0.193572 0.13989,0.129671 0.189092,0.313297 z m -0.205278,0.03883 q -0.02561,-0.09559 -0.100432,-0.168551 -0.07322,-0.07205 -0.19112,-0.114596 -0.197023,-0.07122 -0.4645856,-0.07367 -0.2659683,-0.0015 -0.5275732,0.06857 -0.2075231,0.05561 -0.2948827,0.157199 -0.085765,0.102513 -0.047346,0.245893 0.02696,0.100617 0.1001852,0.172662 0.074483,0.07171 0.1923775,0.114258 0.1954281,0.07031 0.4610594,0.07057 0.2672259,0.0012 0.5300889,-0.06924 0.207523,-0.05561 0.293288,-0.158119 0.08736,-0.101593 0.04894,-0.244973 z" />
      <path
         id="path11597"
         style="font-size:2.66666675px;letter-spacing:5px;fill:#dddddd;fill-opacity:1"
         d="m 15.672991,69.203057 0.351979,0.246459 1.095977,-1.058982 -0.451616,-0.201778 0.167282,-0.159449 0.449483,0.200283 0.216521,0.15161 -1.263259,1.218431 0.350913,0.245712 -0.161095,0.157424 -0.918346,-0.643033 z" />
      <path
         id="path11599"
         style="font-size:2.66666675px;letter-spacing:5px;fill:#dddddd;fill-opacity:1"
         d="m 21.928909,69.506404 -0.429688,0 -0.290364,1.496093 0.485677,-0.09375 -0.04557,0.226563 -0.483073,0.09375 -0.264323,0 0.335938,-1.722656 -0.428386,-10e-7 0.04167,-0.221354 1.121094,0 z" />
      <path
         id="path11597-2"
         style="font-style:italic;font-variant:normal;font-weight:normal;font-stretch:normal;font-size:2.66666675px;line-height:1.25;font-family:sans-serif;-inkscape-font-specification:'sans-serif Italic';letter-spacing:5px;word-spacing:0px;fill:#dddddd;fill-opacity:1;stroke:none"
         d="m 11.791267,75.68702 0.351979,0.246459 1.095977,-1.058982 -0.451616,-0.201778 0.167282,-0.159449 0.449483,0.200283 0.216521,0.15161 -1.263259,1.218431 0.350913,0.245712 -0.161095,0.157424 -0.918346,-0.643033 z" />
      <path
         d="m 19.569017,65.068837 q 0.06841,0.255317 -0.06532,0.435388 -0.133395,0.181329 -0.451597,0.266591 -0.241482,0.0647 -0.497635,0.06459 -0.254559,8.08e-4 -0.473883,-0.06309 -0.219999,-0.06642 -0.360563,-0.198605 -0.13897,-0.131265 -0.190195,-0.322438 -0.06605,-0.246512 0.06894,-0.42692 0.13499,-0.180409 0.450677,-0.264997 0.238966,-0.06403 0.495119,-0.06392 0.257748,0.001 0.476152,0.06653 0.219662,0.06516 0.359216,0.193572 0.13989,0.129671 0.189092,0.313297 z m -0.205278,0.03883 q -0.02561,-0.09559 -0.100432,-0.168551 -0.07322,-0.07205 -0.19112,-0.114596 -0.197023,-0.07122 -0.464586,-0.07367 -0.265968,-0.0015 -0.527573,0.06857 -0.207523,0.05561 -0.294883,0.157199 -0.08576,0.102513 -0.04735,0.245893 0.02696,0.100617 0.100186,0.172662 0.07448,0.07171 0.192377,0.114258 0.195428,0.07031 0.46106,0.07057 0.267225,0.0012 0.530088,-0.06924 0.207523,-0.05561 0.293288,-0.158119 0.08736,-0.101593 0.04894,-0.244973 z"
         style="font-size:2.66666675px;letter-spacing:5px;fill:#dddddd;fill-opacity:1"
         id="path11655" />
      <path
         d="m 22.892249,73.695241 q 0.12708,0.474281 -0.12134,0.808784 -0.247796,0.33684 -0.838894,0.495223 -0.448581,0.120188 -0.924415,0.119984 -0.472873,0.0015 -0.880292,-0.117197 -0.408674,-0.123383 -0.669789,-0.368932 -0.258152,-0.24384 -0.353309,-0.598966 -0.122695,-0.457925 0.128064,-0.793054 0.25076,-0.335131 0.837185,-0.492262 0.443907,-0.118943 0.919741,-0.118739 0.478798,0.0019 0.884509,0.123587 0.408047,0.121042 0.667285,0.359582 0.259861,0.240879 0.35126,0.581986 z m -0.381328,0.07214 q -0.04758,-0.17757 -0.186564,-0.313103 -0.136015,-0.133841 -0.355028,-0.212876 -0.365993,-0.132299 -0.863023,-0.136851 -0.494066,-0.0028 -0.980028,0.127377 -0.385499,0.103303 -0.547779,0.292016 -0.159309,0.190429 -0.08795,0.456775 0.05008,0.186908 0.186107,0.32074 0.138356,0.13321 0.357363,0.212247 0.36303,0.130609 0.856472,0.131092 0.496403,0.0022 0.984701,-0.128621 0.385498,-0.103303 0.544817,-0.293725 0.162281,-0.18872 0.09091,-0.455066 z"
         style="font-size:2.66666675px;letter-spacing:5px;stroke-width:1.85761642;fill:#dddddd;fill-opacity:1"
         id="path11660" />
      <path
         d="m 72.357989,22.086864 h -1.313815 l -0.887818,4.574457 1.485007,-0.286651 -0.139335,0.69274 -1.477044,0.28665 h -0.808195 l 1.027165,-5.267196 -1.309834,-3e-6 0.12741,-0.676812 h 3.427859 z"
         style="font-size:2.66666675px;letter-spacing:5px;fill:#dddddd;fill-opacity:1;stroke-width:3.05760145"
         id="path11723" />
      <path
         d="m 71.803909,16.256404 h -0.429688 l -0.290364,1.496093 0.485677,-0.09375 -0.04557,0.226563 -0.483073,0.09375 h -0.264323 l 0.335938,-1.722656 -0.428386,-1e-6 0.04167,-0.221354 h 1.121094 z"
         style="font-size:2.66666675px;letter-spacing:5px;fill:#dddddd;fill-opacity:1"
         id="path11733" />
    </g>
  </g>
  <g
     id="layer3">
    <g
       id="text11185"
       style="font-style:normal;font-variant:normal;font-weight:bold;font-stretch:normal;font-size:8px;line-height:1.25;font-family:sans-serif;-inkscape-font-specification:'sans-serif Bold';text-align:center;letter-spacing:0px;word-spacing:0px;text-anchor:middle;opacity:1;fill:#ff0000;fill-opacity:1;stroke:none"
       aria-label="Byte Planet
Publishing" />
  </g>
</svg>
